# xmcd
# 
# Track frame offsets:
#     150
#     15485
#     32825
#     45872
#     78935
#     103881
#     114588
#     125756
#     148061
#     176432
# 
# Disc length: 2634
# 
# Revision: 1
# Processed by: cddbd v1.5.2PL0 Copyright (c) Steve Scherf et al.
# Submitted via: BonkEnc v1.0.8
# 
DISCID=7d0a480a
DTITLE=Dickie Peterson - Child of the Darkness
DYEAR=1997
DGENRE=Blues
TTITLE0=Brainkiller
TTITLE1=Spoonfull
TTITLE2=Dogs of War
TTITLE3=Dragon Song
TTITLE4=Who Do you Love
TTITLE5=Dirty Girls
TTITLE6=Back on the Streets
TTITLE7=Reptile
TTITLE8=Child of the Darkness
TTITLE9=Little Red Rooster
EXTD=
EXTT0=
EXTT1=
EXTT2=
EXTT3=
EXTT4=
EXTT5=
EXTT6=
EXTT7=
EXTT8=
EXTT9=
PLAYORDER=
